<svg xmlns="http://www.w3.org/2000/svg" xmlns:xlink="http://www.w3.org/1999/xlink" width="300" zoomAndPan="magnify" viewBox="0 0 224.87999 37.5" height="50" preserveAspectRatio="xMidYMid meet" version="1.0"><defs><g/><clipPath id="fa773961c1"><path d="M 1.421875 23 L 20 23 L 20 32 L 1.421875 32 Z M 1.421875 23 " clip-rule="nonzero"/></clipPath><clipPath id="14bd9245fb"><path d="M 8 3.144531 L 46 3.144531 L 46 34.230469 L 8 34.230469 Z M 8 3.144531 " clip-rule="nonzero"/></clipPath></defs><g fill="#111111" fill-opacity="1"><g transform="translate(55.367464, 26.086716)"><g><path d="M 0.34375 -15.777344 C 2.46875 -15.777344 2.816406 -15.480469 2.816406 -13.628906 L 2.816406 -2.714844 C 2.816406 -0.863281 2.46875 -0.566406 0.34375 -0.566406 L 0.34375 0 L 5.851562 0 L 5.851562 -0.566406 C 3.726562 -0.566406 3.382812 -0.863281 3.382812 -2.714844 L 3.382812 -14.394531 L 10.320312 0 L 11.011719 0 L 17.949219 -14.394531 L 17.949219 -2.714844 C 17.949219 -0.863281 17.605469 -0.566406 15.480469 -0.566406 L 15.480469 0 L 24.789062 0 L 24.789062 -0.566406 C 22.664062 -0.566406 22.320312 -0.863281 22.320312 -2.714844 L 22.320312 -13.628906 C 22.320312 -15.480469 22.664062 -15.777344 24.789062 -15.777344 L 24.789062 -16.34375 L 17.949219 -16.34375 L 12.714844 -5.136719 L 7.382812 -16.34375 L 0.34375 -16.34375 Z M 0.34375 -15.777344 "/></g></g></g><g fill="#111111" fill-opacity="1"><g transform="translate(80.501164, 26.086716)"><g><path d="M 0.296875 0 L 8.617188 0 L 8.617188 -0.566406 L 8.074219 -0.566406 C 6.988281 -0.566406 6.640625 -1.109375 6.640625 -2.542969 L 6.640625 -12.222656 L 6.097656 -12.417969 C 5.234375 -11.503906 4.074219 -11.457031 0.839844 -11.457031 L 0.417969 -11.457031 L 0.417969 -10.886719 C 1.777344 -10.886719 2.273438 -10.492188 2.273438 -9.457031 L 2.273438 -2.542969 C 2.273438 -1.109375 1.925781 -0.566406 0.839844 -0.566406 L 0.296875 -0.566406 Z M 2.023438 -15.382812 C 2.023438 -14.148438 3.0625 -13.160156 4.320312 -13.160156 C 5.605469 -13.160156 6.640625 -14.171875 6.640625 -15.382812 C 6.640625 -16.566406 5.605469 -17.578125 4.320312 -17.578125 C 3.0625 -17.578125 2.023438 -16.589844 2.023438 -15.382812 Z M 2.023438 -15.382812 "/></g></g></g><g fill="#111111" fill-opacity="1"><g transform="translate(89.265865, 26.086716)"><g><path d="M 0.542969 0.0234375 L 1.109375 0.0234375 C 1.507812 -0.46875 1.753906 -0.640625 2.171875 -0.640625 C 3.085938 -0.640625 3.652344 0.199219 6.34375 0.199219 C 9.875 0.199219 11.976562 -1.234375 11.976562 -3.652344 C 11.976562 -8.050781 4.742188 -7.628906 4.742188 -10.34375 C 4.742188 -11.359375 5.507812 -11.976562 6.667969 -11.976562 C 8.492188 -11.976562 10.023438 -10.417969 10.9375 -7.703125 L 11.503906 -7.703125 L 11.503906 -12.371094 L 10.9375 -12.371094 C 10.542969 -11.875 10.296875 -11.703125 9.902344 -11.703125 C 9.011719 -11.703125 8.394531 -12.542969 6.097656 -12.542969 C 2.988281 -12.542969 0.914062 -11.011719 0.914062 -8.640625 C 0.914062 -4.199219 8.148438 -4.691406 8.148438 -1.925781 C 8.148438 -0.964844 7.308594 -0.371094 5.949219 -0.371094 C 3.753906 -0.371094 2.050781 -1.902344 1.109375 -4.640625 L 0.542969 -4.640625 Z M 0.542969 0.0234375 "/></g></g></g><g fill="#111111" fill-opacity="1"><g transform="translate(101.882096, 26.086716)"><g><path d="M 0.640625 -6.171875 C 0.640625 -2.371094 3.578125 0.199219 7.902344 0.199219 C 10.148438 0.199219 12 -0.640625 13.136719 -2.199219 L 12.320312 -2.742188 C 11.429688 -1.136719 9.652344 -0.371094 8.246094 -0.371094 C 4.886719 -0.371094 4.863281 -4.566406 4.863281 -6.960938 L 13.136719 -6.960938 C 13.136719 -10.296875 11.035156 -12.542969 7.109375 -12.542969 C 3.183594 -12.542969 0.640625 -10.050781 0.640625 -6.171875 Z M 4.886719 -7.53125 C 5.0625 -10.542969 5.800781 -11.976562 7.160156 -11.976562 C 8.566406 -11.976562 9.160156 -10.640625 9.257812 -7.53125 Z M 4.886719 -7.53125 "/></g></g></g><g fill="#111111" fill-opacity="1"><g transform="translate(115.658722, 26.086716)"><g/></g></g><g fill="#111111" fill-opacity="1"><g transform="translate(121.090366, 26.086716)"><g><path d="M 0.640625 -6.171875 C 0.640625 -2.371094 3.578125 0.199219 7.902344 0.199219 C 10.148438 0.199219 12 -0.640625 13.136719 -2.199219 L 12.320312 -2.742188 C 11.429688 -1.136719 9.652344 -0.371094 8.246094 -0.371094 C 4.886719 -0.371094 4.863281 -4.566406 4.863281 -6.960938 L 13.136719 -6.960938 C 13.136719 -10.296875 11.035156 -12.542969 7.109375 -12.542969 C 3.183594 -12.542969 0.640625 -10.050781 0.640625 -6.171875 Z M 4.886719 -7.53125 C 5.0625 -10.542969 5.800781 -11.976562 7.160156 -11.976562 C 8.566406 -11.976562 9.160156 -10.640625 9.257812 -7.53125 Z M 4.886719 -7.53125 "/></g></g></g><g fill="#111111" fill-opacity="1"><g transform="translate(134.866992, 26.086716)"><g><path d="M 0.296875 0 L 8.074219 0 L 8.074219 -0.566406 C 6.988281 -0.640625 6.640625 -1.109375 6.640625 -2.542969 L 6.640625 -9.332031 C 7.109375 -10.34375 7.902344 -11.457031 8.886719 -11.457031 C 9.652344 -11.457031 10.222656 -10.8125 10.222656 -9.628906 L 10.222656 -2.542969 C 10.222656 -1.109375 9.875 -0.640625 8.789062 -0.566406 L 8.742188 -0.566406 L 8.742188 0 L 16.566406 0 L 16.566406 -0.566406 L 16.023438 -0.566406 C 14.9375 -0.566406 14.59375 -1.109375 14.59375 -2.542969 L 14.59375 -8.023438 C 14.59375 -10.765625 13.234375 -12.542969 10.492188 -12.542969 C 9.0625 -12.542969 7.925781 -12 6.640625 -10.738281 L 6.640625 -12.222656 L 6.097656 -12.417969 C 5.234375 -11.503906 4.074219 -11.457031 0.839844 -11.457031 L 0.417969 -11.457031 L 0.417969 -10.886719 C 1.777344 -10.886719 2.273438 -10.492188 2.273438 -9.457031 L 2.273438 -2.542969 C 2.273438 -1.109375 1.925781 -0.566406 0.839844 -0.566406 L 0.296875 -0.566406 Z M 0.296875 0 "/></g></g></g><g fill="#111111" fill-opacity="1"><g transform="translate(151.581645, 26.086716)"><g/></g></g><g fill="#111111" fill-opacity="1"><g transform="translate(157.013289, 26.086716)"><g><path d="M 0.34375 0 L 9.652344 0 L 9.652344 -0.566406 C 7.53125 -0.566406 7.183594 -0.863281 7.183594 -2.714844 L 7.183594 -5.777344 L 8.988281 -5.777344 C 13.753906 -5.777344 16.320312 -7.628906 16.320312 -11.0625 C 16.320312 -14.492188 13.753906 -16.34375 8.988281 -16.34375 L 0.34375 -16.34375 L 0.34375 -15.777344 C 2.46875 -15.777344 2.816406 -15.480469 2.816406 -13.628906 L 2.816406 -2.714844 C 2.816406 -0.863281 2.46875 -0.566406 0.34375 -0.566406 Z M 8.988281 -15.777344 C 10.59375 -15.777344 11.703125 -13.828125 11.703125 -11.0625 C 11.703125 -8.296875 10.566406 -6.34375 8.988281 -6.34375 L 8.519531 -6.34375 C 7.480469 -6.34375 7.183594 -6.742188 7.183594 -8.195312 L 7.183594 -15.777344 Z M 8.988281 -15.777344 "/></g></g></g><g fill="#111111" fill-opacity="1"><g transform="translate(174.073596, 26.086716)"><g><path d="M 0.296875 0 L 8.617188 0 L 8.617188 -0.566406 L 8.074219 -0.566406 C 7.035156 -0.566406 6.640625 -1.035156 6.640625 -2.542969 L 6.640625 -17.503906 L 6.097656 -17.703125 C 5.234375 -16.789062 4.074219 -16.738281 0.839844 -16.738281 L 0.417969 -16.738281 L 0.417969 -16.171875 C 1.777344 -16.171875 2.273438 -15.777344 2.273438 -14.738281 L 2.273438 -2.542969 C 2.273438 -1.035156 1.875 -0.566406 0.839844 -0.566406 L 0.296875 -0.566406 Z M 0.296875 0 "/></g></g></g><g fill="#111111" fill-opacity="1"><g transform="translate(182.838297, 26.086716)"><g><path d="M 0.492188 -2.9375 C 0.492188 -1.085938 2.148438 0.199219 4.222656 0.199219 C 5.40625 0.199219 6.9375 -0.246094 7.828125 -1.949219 C 8.269531 -0.46875 9.210938 0.199219 10.914062 0.199219 C 11.902344 0.199219 12.886719 -0.0234375 13.800781 -0.417969 L 13.800781 -0.988281 C 13.503906 -0.863281 13.210938 -0.816406 12.960938 -0.816406 C 12.269531 -0.816406 11.828125 -1.285156 11.828125 -2.125 L 11.828125 -6.886719 C 11.828125 -10.640625 9.40625 -12.542969 6.097656 -12.542969 C 3.210938 -12.542969 1.40625 -11.085938 1.40625 -9.136719 C 1.40625 -7.875 2.171875 -7.0625 3.308594 -7.0625 C 4.46875 -7.0625 5.257812 -7.902344 5.257812 -9.136719 C 4.765625 -9.652344 4.519531 -10.222656 4.519531 -10.738281 C 4.519531 -11.429688 4.988281 -11.976562 5.875 -11.976562 C 7.085938 -11.976562 7.628906 -10.960938 7.628906 -9.0625 C 7.628906 -8.492188 7.578125 -7.828125 7.480469 -7.109375 C 4.59375 -6.863281 0.492188 -5.875 0.492188 -2.9375 Z M 4.714844 -2.890625 C 4.714844 -5.210938 5.753906 -6.171875 7.457031 -6.492188 L 7.457031 -5.382812 C 7.457031 -2.296875 6.46875 -0.714844 5.679688 -0.714844 C 5.085938 -0.714844 4.714844 -1.507812 4.714844 -2.890625 Z M 4.714844 -2.890625 "/></g></g></g><g fill="#111111" fill-opacity="1"><g transform="translate(196.787759, 26.086716)"><g><path d="M 0.640625 -6.171875 C 0.640625 -2.371094 3.035156 0.199219 7.359375 0.199219 C 9.605469 0.199219 11.457031 -0.640625 12.59375 -2.199219 L 11.777344 -2.742188 C 10.988281 -1.332031 9.332031 -0.371094 7.703125 -0.371094 C 5.925781 -0.371094 4.863281 -1.949219 4.863281 -6.171875 C 4.863281 -10.121094 5.605469 -11.976562 7.160156 -11.976562 C 8.097656 -11.976562 8.714844 -11.210938 8.714844 -10.371094 C 8.714844 -9.949219 8.542969 -9.503906 8.195312 -9.136719 C 8.195312 -7.902344 8.988281 -7.0625 10.148438 -7.0625 C 11.285156 -7.0625 12.046875 -7.875 12.046875 -9.109375 C 12.046875 -11.109375 10.023438 -12.542969 7.109375 -12.542969 C 3.183594 -12.542969 0.640625 -10.050781 0.640625 -6.171875 Z M 0.640625 -6.171875 "/></g></g></g><g fill="#111111" fill-opacity="1"><g transform="translate(209.675579, 26.086716)"><g><path d="M 0.640625 -6.171875 C 0.640625 -2.371094 3.578125 0.199219 7.902344 0.199219 C 10.148438 0.199219 12 -0.640625 13.136719 -2.199219 L 12.320312 -2.742188 C 11.429688 -1.136719 9.652344 -0.371094 8.246094 -0.371094 C 4.886719 -0.371094 4.863281 -4.566406 4.863281 -6.960938 L 13.136719 -6.960938 C 13.136719 -10.296875 11.035156 -12.542969 7.109375 -12.542969 C 3.183594 -12.542969 0.640625 -10.050781 0.640625 -6.171875 Z M 4.886719 -7.53125 C 5.0625 -10.542969 5.800781 -11.976562 7.160156 -11.976562 C 8.566406 -11.976562 9.160156 -10.640625 9.257812 -7.53125 Z M 4.886719 -7.53125 "/></g></g></g><path fill="#000000" d="M 22.53125 27.996094 C 22.929688 27.460938 23.359375 26.949219 23.820312 26.464844 C 24.300781 25.972656 25.921875 24.355469 26.398438 23.898438 C 26.527344 23.773438 26.894531 23.378906 27.214844 23.023438 C 27.535156 22.664062 28.1875 21.96875 28.664062 21.472656 C 29.136719 20.980469 29.683594 20.394531 29.882812 20.171875 C 30.085938 19.945312 30.414062 19.585938 30.621094 19.363281 C 30.828125 19.140625 30.984375 18.953125 30.96875 18.9375 C 30.953125 18.917969 30.558594 19.304688 30.089844 19.785156 C 29.625 20.269531 29 20.894531 28.699219 21.167969 C 28.402344 21.445312 27.746094 22.09375 27.238281 22.605469 C 26.734375 23.121094 26.210938 23.625 26.078125 23.738281 C 25.769531 24 23.5 26.273438 23.0625 26.761719 C 22.878906 26.964844 22.625 27.277344 22.5 27.453125 C 22.375 27.628906 22.21875 27.839844 22.152344 27.921875 C 21.8125 28.324219 21.652344 28.585938 21.652344 28.738281 C 21.652344 28.808594 21.734375 28.75 22.0625 28.449219 C 22.226562 28.304688 22.382812 28.152344 22.53125 27.988281 Z M 22.53125 27.996094 " fill-opacity="1" fill-rule="nonzero"/><path fill="#000000" d="M 32.414062 15.683594 C 32.371094 15.207031 32.5 14.109375 32.652344 13.609375 C 32.714844 13.429688 32.789062 13.257812 32.871094 13.089844 C 32.957031 12.914062 33.011719 12.773438 32.992188 12.773438 C 32.921875 12.773438 32.632812 13.144531 32.445312 13.464844 C 32.265625 13.757812 32.148438 14.074219 32.089844 14.417969 C 32.042969 14.746094 32.167969 15.671875 32.292969 15.925781 C 32.386719 16.117188 32.4375 16.015625 32.414062 15.683594 Z M 32.414062 15.683594 " fill-opacity="1" fill-rule="nonzero"/><g clip-path="url(#fa773961c1)"><path fill="#be8d4a" d="M 19.742188 25.101562 C 19.492188 24.335938 19.117188 23.859375 18.527344 23.566406 C 18.121094 23.367188 17.804688 23.28125 17.222656 23.21875 C 16.597656 23.160156 15.914062 23.234375 14.992188 23.46875 C 14.335938 23.640625 14.1875 23.703125 13.101562 24.246094 C 12.570312 24.507812 12.023438 24.761719 11.878906 24.808594 C 11.441406 24.949219 11.15625 24.988281 10.972656 24.9375 C 10.722656 24.871094 10.667969 24.808594 10.644531 24.582031 C 10.628906 24.410156 10.644531 24.363281 10.734375 24.253906 C 11.042969 23.878906 11.753906 23.800781 11.753906 24.136719 C 11.753906 24.238281 11.585938 24.359375 11.453125 24.359375 C 11.417969 24.359375 11.398438 24.378906 11.410156 24.402344 C 11.449219 24.460938 11.71875 24.449219 11.800781 24.386719 C 11.847656 24.347656 11.882812 24.296875 11.90625 24.238281 C 11.929688 24.179688 11.9375 24.121094 11.929688 24.058594 C 11.925781 23.992188 11.902344 23.9375 11.867188 23.886719 C 11.832031 23.832031 11.785156 23.792969 11.730469 23.765625 C 11.449219 23.652344 10.960938 23.730469 10.679688 23.941406 C 10.589844 24.015625 10.511719 24.101562 10.445312 24.199219 C 10.355469 24.316406 10.328125 24.449219 10.359375 24.59375 C 10.367188 24.71875 10.390625 24.835938 10.433594 24.953125 C 10.554688 25.207031 11.183594 25.390625 11.628906 25.296875 C 11.839844 25.242188 12.042969 25.175781 12.246094 25.09375 C 12.457031 25.007812 12.644531 24.933594 12.65625 24.933594 C 12.667969 24.933594 11.949219 25.5625 11.433594 25.988281 C 10.839844 26.445312 10.21875 26.863281 9.574219 27.238281 C 9.253906 27.414062 9.175781 27.4375 8.617188 27.523438 C 7.800781 27.65625 6.59375 27.722656 6.1875 27.664062 C 5.476562 27.554688 4.976562 27.378906 4.488281 27.070312 C 4.101562 26.816406 3.992188 26.707031 3.855469 26.4375 C 3.679688 26.082031 3.636719 25.867188 3.714844 25.714844 C 3.804688 25.539062 3.914062 25.492188 4.167969 25.519531 C 4.421875 25.550781 4.453125 25.492188 4.242188 25.40625 C 3.945312 25.277344 3.695312 25.359375 3.546875 25.636719 C 3.460938 25.789062 3.453125 25.847656 3.46875 26.140625 C 3.464844 26.351562 3.515625 26.546875 3.621094 26.726562 C 3.804688 27.050781 4.058594 27.304688 4.375 27.492188 C 4.621094 27.621094 4.507812 27.617188 4.117188 27.492188 C 3.628906 27.316406 3.175781 27.070312 2.765625 26.753906 C 2.324219 26.386719 1.9375 25.785156 1.875 25.371094 C 1.832031 25.085938 1.921875 24.773438 2.140625 24.441406 C 2.464844 23.949219 2.792969 23.703125 3.179688 23.65625 C 3.519531 23.613281 3.933594 23.886719 3.886719 24.128906 C 3.871094 24.226562 3.871094 24.226562 3.925781 24.152344 C 4.066406 23.960938 3.933594 23.691406 3.59375 23.492188 C 3.433594 23.398438 3.386719 23.390625 3.109375 23.40625 C 2.667969 23.429688 2.402344 23.566406 2.039062 23.941406 C 1.636719 24.355469 1.488281 24.671875 1.464844 25.144531 C 1.417969 26.167969 2.050781 27.363281 3.039062 28.125 C 3.410156 28.421875 3.820312 28.640625 4.273438 28.789062 L 4.640625 28.917969 L 5.601562 28.917969 C 6.507812 28.917969 6.59375 28.910156 7.105469 28.800781 C 7.402344 28.738281 7.757812 28.652344 7.898438 28.609375 C 8.816406 28.253906 9.714844 27.851562 10.589844 27.402344 C 10.734375 27.320312 10.832031 27.28125 10.816406 27.3125 C 10.609375 27.65625 9.128906 29.222656 8.574219 29.679688 C 7.496094 30.5625 6.308594 31.074219 5.484375 31.007812 C 4.839844 30.953125 4.183594 30.335938 4.453125 30.035156 C 4.550781 29.925781 4.667969 29.863281 4.8125 29.839844 C 4.953125 29.820312 5.085938 29.84375 5.207031 29.917969 C 5.363281 30.011719 5.390625 29.984375 5.277344 29.851562 C 5.152344 29.683594 4.988281 29.609375 4.777344 29.628906 C 4.296875 29.628906 4.023438 29.914062 4.085938 30.34375 C 4.144531 30.726562 4.484375 31.042969 5.066406 31.25 C 5.304688 31.335938 5.382812 31.339844 5.871094 31.328125 C 6.804688 31.296875 7.410156 31.074219 8.363281 30.40625 C 9.238281 29.792969 9.9375 29.117188 11.15625 27.710938 C 12.265625 26.433594 12.886719 25.75 13.273438 25.402344 C 13.660156 25.058594 14.914062 24.199219 15.289062 24.035156 C 15.605469 23.898438 16.113281 23.90625 16.710938 24.058594 C 17.75 24.332031 18.277344 24.78125 18.433594 25.539062 L 18.488281 25.8125 L 18.476562 25.46875 C 18.457031 24.957031 18.347656 24.703125 18.007812 24.359375 C 17.769531 24.113281 17.488281 23.933594 17.171875 23.8125 L 17.027344 23.757812 L 17.167969 23.78125 C 17.902344 23.902344 18.457031 24.203125 18.714844 24.617188 C 18.902344 24.980469 19.027344 25.367188 19.078125 25.777344 C 19.105469 26.09375 19.027344 26.441406 18.898438 26.597656 C 18.628906 26.921875 17.96875 27.210938 17.621094 27.160156 C 17.105469 27.085938 16.96875 26.996094 16.96875 26.71875 C 16.96875 26.507812 17.046875 26.390625 17.25 26.285156 C 17.4375 26.1875 17.523438 26.0625 17.425781 26.023438 C 17.214844 25.941406 16.828125 26.121094 16.695312 26.367188 C 16.546875 26.613281 16.53125 26.867188 16.648438 27.128906 C 16.761719 27.339844 17.074219 27.53125 17.457031 27.632812 C 17.96875 27.769531 18.371094 27.71875 18.914062 27.449219 C 19.757812 27.027344 20.074219 26.128906 19.742188 25.101562 Z M 7.792969 28.292969 C 7.710938 28.347656 6.855469 28.566406 6.417969 28.640625 C 5.839844 28.714844 5.265625 28.714844 4.691406 28.640625 C 3.820312 28.472656 3.09375 28.046875 2.519531 27.359375 C 2.089844 26.871094 2.015625 26.726562 2.375 27.074219 C 2.867188 27.550781 3.4375 27.878906 4.089844 28.070312 C 4.796875 28.253906 5.519531 28.359375 6.253906 28.382812 C 6.753906 28.378906 7.253906 28.34375 7.75 28.277344 C 7.828125 28.257812 7.839844 28.265625 7.792969 28.292969 Z M 7.792969 28.292969 " fill-opacity="1" fill-rule="nonzero"/></g><path fill="#be8d4a" d="M 50.960938 25.140625 C 50.941406 24.664062 50.789062 24.347656 50.390625 23.933594 C 50.027344 23.558594 49.761719 23.425781 49.320312 23.398438 C 49.042969 23.382812 48.996094 23.390625 48.832031 23.488281 C 48.492188 23.691406 48.363281 23.949219 48.503906 24.148438 C 48.558594 24.222656 48.558594 24.21875 48.539062 24.125 C 48.496094 23.882812 48.90625 23.609375 49.25 23.648438 C 49.636719 23.695312 49.964844 23.945312 50.289062 24.433594 C 50.691406 25.050781 50.640625 25.585938 50.105469 26.289062 C 49.738281 26.773438 49.03125 27.246094 48.3125 27.484375 C 47.917969 27.613281 47.808594 27.613281 48.050781 27.484375 C 48.371094 27.296875 48.625 27.042969 48.808594 26.722656 C 48.914062 26.539062 48.964844 26.34375 48.960938 26.132812 C 48.976562 25.839844 48.960938 25.78125 48.882812 25.628906 C 48.730469 25.355469 48.484375 25.277344 48.183594 25.398438 C 47.972656 25.488281 48.011719 25.546875 48.261719 25.511719 C 48.511719 25.480469 48.621094 25.53125 48.714844 25.707031 C 48.792969 25.859375 48.75 26.074219 48.574219 26.429688 C 48.4375 26.703125 48.328125 26.8125 47.941406 27.058594 C 47.457031 27.375 46.957031 27.550781 46.242188 27.65625 C 45.835938 27.714844 44.628906 27.648438 43.8125 27.515625 C 43.253906 27.429688 43.175781 27.402344 42.855469 27.230469 C 42.207031 26.855469 41.589844 26.4375 40.992188 25.980469 C 40.480469 25.554688 39.753906 24.929688 39.773438 24.929688 C 39.792969 24.929688 39.96875 25 40.1875 25.085938 C 40.386719 25.167969 40.589844 25.234375 40.800781 25.289062 C 41.246094 25.382812 41.875 25.203125 41.996094 24.945312 C 42.039062 24.828125 42.0625 24.710938 42.070312 24.585938 C 42.101562 24.441406 42.074219 24.308594 41.984375 24.191406 C 41.917969 24.09375 41.839844 24.007812 41.75 23.933594 C 41.46875 23.722656 40.980469 23.640625 40.699219 23.757812 C 40.644531 23.785156 40.597656 23.828125 40.5625 23.878906 C 40.527344 23.929688 40.503906 23.988281 40.5 24.050781 C 40.492188 24.113281 40.5 24.171875 40.523438 24.230469 C 40.546875 24.289062 40.582031 24.339844 40.628906 24.378906 C 40.710938 24.441406 40.980469 24.453125 41.019531 24.394531 C 41.03125 24.371094 41.019531 24.355469 40.976562 24.355469 C 40.84375 24.355469 40.675781 24.230469 40.675781 24.128906 C 40.675781 23.785156 41.390625 23.867188 41.703125 24.246094 C 41.792969 24.355469 41.804688 24.398438 41.789062 24.574219 C 41.765625 24.804688 41.710938 24.863281 41.460938 24.929688 C 41.28125 24.980469 40.996094 24.9375 40.554688 24.796875 C 40.410156 24.753906 39.863281 24.5 39.332031 24.234375 C 38.25 23.691406 38.101562 23.632812 37.441406 23.460938 C 35.921875 23.074219 34.816406 23.101562 33.90625 23.554688 C 33.316406 23.84375 32.941406 24.320312 32.691406 25.089844 C 32.359375 26.113281 32.675781 27.011719 33.523438 27.433594 C 34.066406 27.703125 34.464844 27.753906 34.980469 27.617188 C 35.363281 27.515625 35.675781 27.324219 35.789062 27.117188 C 35.90625 26.851562 35.890625 26.597656 35.742188 26.351562 C 35.609375 26.109375 35.222656 25.929688 35.011719 26.007812 C 34.914062 26.042969 35 26.171875 35.1875 26.265625 C 35.390625 26.375 35.46875 26.496094 35.46875 26.703125 C 35.46875 26.980469 35.332031 27.070312 34.820312 27.144531 C 34.46875 27.195312 33.808594 26.90625 33.539062 26.578125 C 33.410156 26.425781 33.332031 26.078125 33.355469 25.761719 C 33.410156 25.351562 33.535156 24.964844 33.722656 24.601562 C 33.980469 24.183594 34.535156 23.886719 35.269531 23.765625 L 35.410156 23.742188 L 35.265625 23.796875 C 34.949219 23.914062 34.667969 24.097656 34.429688 24.34375 C 34.089844 24.6875 33.976562 24.941406 33.960938 25.453125 L 33.949219 25.796875 L 34.003906 25.523438 C 34.160156 24.765625 34.683594 24.316406 35.726562 24.042969 C 36.324219 23.890625 36.832031 23.882812 37.148438 24.019531 C 37.523438 24.183594 38.769531 25.03125 39.164062 25.386719 C 39.554688 25.742188 40.171875 26.414062 41.28125 27.691406 C 42.765625 29.40625 43.636719 30.1875 44.761719 30.820312 C 45.105469 31.03125 45.476562 31.171875 45.871094 31.238281 C 46.359375 31.34375 46.996094 31.34375 47.328125 31.238281 C 47.660156 31.132812 48.054688 30.894531 48.183594 30.707031 C 48.566406 30.175781 48.296875 29.609375 47.652344 29.609375 C 47.445312 29.585938 47.28125 29.660156 47.15625 29.832031 C 47.042969 29.964844 47.074219 29.988281 47.226562 29.898438 C 47.574219 29.6875 48.089844 29.898438 48.027344 30.230469 C 47.96875 30.566406 47.441406 30.941406 46.949219 30.984375 C 46.128906 31.050781 44.9375 30.535156 43.859375 29.65625 C 43.304688 29.199219 41.820312 27.636719 41.617188 27.289062 C 41.597656 27.257812 41.699219 27.296875 41.84375 27.378906 C 42.316406 27.648438 44.109375 28.453125 44.535156 28.585938 C 44.671875 28.625 45.027344 28.714844 45.324219 28.777344 C 45.832031 28.894531 45.917969 28.894531 46.824219 28.894531 L 47.785156 28.894531 L 48.15625 28.761719 C 48.605469 28.621094 49.015625 28.40625 49.386719 28.117188 C 50.378906 27.355469 51.011719 26.164062 50.960938 25.140625 Z M 49.917969 27.367188 C 49.390625 27.980469 48.738281 28.390625 47.964844 28.601562 C 47.601562 28.703125 46.421875 28.726562 45.992188 28.644531 C 45.558594 28.558594 44.71875 28.34375 44.644531 28.296875 C 44.597656 28.265625 44.609375 28.261719 44.6875 28.277344 C 45.183594 28.34375 45.683594 28.378906 46.183594 28.382812 C 46.914062 28.363281 47.636719 28.261719 48.347656 28.078125 C 49 27.890625 49.574219 27.558594 50.070312 27.082031 C 50.417969 26.734375 50.347656 26.875 49.917969 27.367188 Z M 49.917969 27.367188 " fill-opacity="1" fill-rule="nonzero"/><path fill="#be8d4a" d="M 32.039062 7.058594 C 31.882812 6.339844 31.359375 5.984375 30.351562 5.914062 C 29.914062 5.878906 29.515625 5.972656 29.011719 6.230469 C 28.792969 6.324219 28.601562 6.460938 28.4375 6.636719 L 28.253906 6.847656 L 27.992188 6.558594 C 27.691406 6.230469 27.488281 6.113281 26.921875 5.960938 C 26.597656 5.871094 26.46875 5.859375 25.890625 5.859375 C 25.308594 5.859375 25.183594 5.871094 24.855469 5.960938 C 24.289062 6.113281 24.089844 6.230469 23.789062 6.558594 L 23.527344 6.847656 L 23.34375 6.636719 C 23.179688 6.460938 22.984375 6.324219 22.765625 6.230469 C 22.265625 5.972656 21.867188 5.882812 21.425781 5.914062 C 20.421875 5.984375 19.898438 6.339844 19.742188 7.058594 C 19.679688 7.335938 19.683594 7.367188 19.757812 7.730469 C 19.855469 8.179688 19.992188 8.449219 20.835938 9.871094 C 22.269531 12.292969 22.289062 12.328125 22.566406 13.097656 C 22.792969 13.726562 22.757812 13.6875 23.097656 13.695312 C 23.199219 13.695312 23.246094 13.683594 23.246094 13.644531 C 23.246094 13.46875 22.917969 12.667969 22.582031 12.03125 C 22.308594 11.480469 22 10.953125 21.664062 10.441406 C 21.507812 10.195312 21.273438 9.800781 21.148438 9.566406 C 21.019531 9.328125 20.875 9.082031 20.828125 9.015625 C 20.488281 8.554688 20.042969 7.664062 20.113281 7.59375 C 20.160156 7.542969 20.199219 7.578125 20.453125 7.925781 C 21.355469 9.171875 22.179688 10.472656 22.914062 11.828125 C 23.210938 12.355469 23.445312 12.910156 23.617188 13.492188 L 23.667969 13.691406 L 23.976562 13.667969 C 24.191406 13.652344 24.40625 13.664062 24.617188 13.703125 C 24.875 13.75 25.261719 13.761719 26.371094 13.753906 C 27.917969 13.746094 28.078125 13.761719 28.203125 13.953125 C 28.265625 14.050781 28.265625 14.058594 28.195312 14.113281 C 28.03125 14.234375 27.886719 14.234375 27.09375 14.113281 C 26.882812 14.082031 26.53125 14.042969 26.3125 14.027344 L 25.910156 14 L 25.910156 14.804688 C 25.910156 15.578125 25.875 15.835938 25.78125 15.835938 C 25.761719 15.835938 25.726562 15.785156 25.703125 15.722656 C 25.601562 15.460938 25.570312 15.132812 25.582031 14.574219 L 25.59375 13.992188 L 25.132812 14.015625 C 24.878906 14.027344 24.519531 14.039062 24.328125 14.039062 L 23.988281 14.039062 L 23.964844 15 C 23.953125 15.570312 23.929688 15.980469 23.902344 16.003906 C 23.765625 16.144531 23.660156 15.320312 23.734375 14.65625 C 23.75 14.480469 23.773438 14.304688 23.804688 14.128906 C 23.828125 14.074219 23.761719 14.070312 23.230469 14.09375 C 22.507812 14.128906 22.148438 14.183594 22.015625 14.277344 C 21.789062 14.449219 21.660156 15.199219 21.796875 15.617188 C 21.898438 15.929688 22.011719 16.066406 22.355469 16.300781 C 22.835938 16.628906 23.140625 16.761719 23.515625 16.804688 C 23.976562 16.855469 27.742188 16.859375 28.214844 16.804688 C 28.4375 16.789062 28.65625 16.734375 28.859375 16.640625 C 29.230469 16.464844 29.75 16.101562 29.851562 15.949219 C 30.179688 15.4375 30.117188 14.585938 29.726562 14.183594 C 29.527344 13.984375 29.273438 13.839844 29.128906 13.839844 C 29.082031 13.84375 29.039062 13.828125 29.003906 13.800781 C 28.96875 13.742188 29.410156 12.546875 29.609375 12.175781 C 29.792969 11.828125 29.949219 11.554688 30.953125 9.867188 C 31.796875 8.445312 31.933594 8.175781 32.027344 7.726562 C 32.097656 7.367188 32.097656 7.332031 32.039062 7.058594 Z M 29.257812 14.46875 C 29.074219 14.265625 29.0625 14.203125 29.207031 14.203125 C 29.476562 14.203125 29.773438 14.757812 29.734375 15.179688 C 29.695312 15.449219 29.582031 15.679688 29.394531 15.871094 C 29.265625 15.988281 29.101562 16.03125 29.101562 15.957031 C 29.121094 15.914062 29.144531 15.878906 29.179688 15.851562 C 29.265625 15.773438 29.394531 15.460938 29.460938 15.160156 C 29.527344 14.890625 29.460938 14.660156 29.257812 14.46875 Z M 29.257812 14.46875 " fill-opacity="1" fill-rule="nonzero"/><g clip-path="url(#14bd9245fb)"><path fill="#111111" d="M 45.457031 8.292969 C 45.257812 8.484375 44.898438 8.824219 44.660156 9.046875 C 44.058594 9.605469 42.722656 10.90625 40.539062 13.058594 C 39.53125 14.058594 38.484375 15.082031 38.21875 15.335938 C 36.890625 16.605469 36.125 17.132812 35.5625 17.167969 L 35.308594 17.1875 L 35.308594 16.960938 C 35.308594 16.808594 35.34375 16.664062 35.421875 16.53125 C 35.535156 16.316406 36.078125 15.585938 37.171875 14.183594 C 38.179688 12.886719 39.136719 11.570312 40.625 9.433594 C 40.972656 8.929688 41.46875 8.253906 41.722656 7.925781 C 41.980469 7.601562 42.3125 7.160156 42.464844 6.949219 C 42.617188 6.738281 42.808594 6.472656 42.890625 6.359375 C 43.054688 6.140625 43.28125 5.707031 43.28125 5.617188 C 43.28125 5.40625 42.855469 5.832031 41.300781 7.601562 C 40.875 8.082031 40.351562 8.671875 40.132812 8.90625 C 39.917969 9.144531 39.371094 9.757812 38.917969 10.273438 C 37.511719 11.878906 35.363281 14.160156 34.757812 14.6875 C 34.347656 15.046875 33.8125 15.414062 33.644531 15.449219 C 33.542969 15.46875 33.507812 15.453125 33.4375 15.363281 C 33.140625 14.980469 33.390625 14.179688 34.179688 12.980469 C 34.585938 12.363281 35.546875 11.046875 36.578125 9.699219 C 37.273438 8.792969 37.699219 8.183594 38.855469 6.4375 C 39.484375 5.492188 39.785156 5.070312 40.421875 4.230469 C 40.953125 3.527344 40.980469 3.484375 40.859375 3.484375 C 40.78125 3.484375 39.203125 5.046875 38.433594 5.890625 C 38.089844 6.257812 37.242188 7.148438 36.546875 7.863281 C 35.847656 8.582031 35.210938 9.25 35.128906 9.351562 C 35.050781 9.457031 34.714844 9.832031 34.386719 10.195312 C 33.902344 10.714844 33.445312 11.261719 33.023438 11.839844 C 32.289062 12.8125 31.890625 13.539062 31.730469 14.179688 C 31.632812 14.652344 31.570312 15.128906 31.546875 15.613281 C 31.566406 15.96875 31.65625 16.3125 31.808594 16.632812 L 31.914062 16.8125 L 31.480469 17.273438 C 31.335938 17.4375 31.1875 17.59375 31.027344 17.742188 C 30.933594 17.742188 28.515625 20.246094 27.566406 21.324219 C 27.453125 21.449219 27.179688 21.753906 26.945312 22 C 26.710938 22.246094 26.460938 22.519531 26.390625 22.609375 L 26.261719 22.773438 L 26.148438 22.628906 C 25.476562 21.769531 24.09375 20.164062 21.171875 16.855469 C 13.972656 8.691406 10.332031 4.609375 9.339844 3.597656 C 8.90625 3.15625 8.902344 3.152344 8.859375 3.253906 C 8.832031 3.316406 8.8125 3.703125 8.8125 4.273438 C 8.8125 5.046875 8.824219 5.261719 8.902344 5.664062 C 9.164062 7.066406 9.785156 8.953125 10.644531 10.9375 C 12.003906 14.078125 13.15625 16.035156 14.882812 18.144531 C 15.902344 19.390625 16.609375 20.105469 18.746094 22.082031 C 20.59375 23.789062 20.582031 23.78125 20.875 23.871094 C 21.207031 23.972656 21.421875 23.84375 22.277344 23.011719 C 22.746094 22.550781 23.167969 22.253906 23.167969 22.371094 C 23.101562 22.515625 23.023438 22.65625 22.929688 22.789062 C 22.824219 22.9375 22.738281 23.097656 22.667969 23.265625 C 22.617188 23.484375 22.746094 23.640625 23.472656 24.257812 C 23.855469 24.585938 24.175781 24.867188 24.1875 24.886719 C 24.199219 24.90625 23.902344 25.21875 23.527344 25.585938 C 22.863281 26.230469 21.238281 27.941406 20.261719 29.019531 C 20 29.308594 19.507812 29.851562 19.167969 30.21875 C 18.652344 30.78125 18.527344 30.941406 18.40625 31.199219 C 18.300781 31.390625 18.25 31.597656 18.261719 31.816406 C 18.246094 32.035156 18.296875 32.242188 18.410156 32.425781 C 18.765625 33.148438 19.753906 34.019531 20.394531 34.175781 C 20.660156 34.230469 20.925781 34.226562 21.1875 34.15625 C 21.660156 34.03125 21.898438 33.820312 22.347656 33.117188 C 22.53125 32.835938 22.824219 32.414062 23.003906 32.179688 C 23.566406 31.453125 24.515625 30.195312 25.003906 29.53125 C 25.757812 28.507812 26.058594 28.101562 26.273438 27.808594 L 26.476562 27.53125 L 26.609375 27.683594 C 26.683594 27.769531 26.925781 28.09375 27.144531 28.410156 C 27.804688 29.34375 28.199219 30.261719 28.699219 31.996094 C 28.777344 32.273438 28.871094 32.546875 28.980469 32.816406 C 29.207031 33.320312 29.617188 33.625 30.191406 33.726562 C 31.015625 33.875 32.378906 33.292969 33.082031 32.5 C 33.347656 32.160156 33.535156 31.785156 33.648438 31.367188 C 33.804688 30.738281 33.53125 30.25 32.179688 28.773438 C 31.386719 27.902344 29.542969 26.125 28.789062 25.503906 L 28.460938 25.230469 L 28.714844 24.96875 C 28.851562 24.820312 29.089844 24.554688 29.242188 24.375 C 29.609375 23.945312 30.59375 22.859375 30.757812 22.707031 C 31.195312 22.292969 32.152344 21.1875 33.136719 19.964844 C 33.277344 19.792969 33.523438 19.511719 33.6875 19.34375 C 33.851562 19.175781 34.027344 18.988281 34.078125 18.929688 L 34.167969 18.8125 L 34.507812 18.855469 C 35.574219 18.988281 36.40625 18.664062 37.605469 17.640625 C 38.773438 16.648438 39.582031 15.828125 41.359375 13.839844 C 43.078125 11.914062 43.8125 11.035156 44.707031 9.828125 C 45.074219 9.332031 45.855469 8.066406 45.832031 8 C 45.820312 7.96875 45.648438 8.105469 45.457031 8.292969 Z M 19.640625 20.761719 C 19.558594 20.761719 19.074219 20.34375 18.308594 19.621094 C 17.933594 19.269531 17.394531 18.769531 17.105469 18.515625 C 16.820312 18.261719 16.398438 17.859375 16.164062 17.625 C 15.558594 17.011719 14.433594 15.746094 14.160156 15.363281 C 13.1875 14.011719 12.902344 13.597656 12.511719 12.953125 C 11.824219 11.769531 11.222656 10.542969 10.699219 9.273438 C 9.882812 7.304688 9.714844 6.882812 9.601562 6.507812 C 9.230469 5.304688 9.074219 4.558594 9.203125 4.597656 C 9.292969 4.625 9.605469 5.308594 9.835938 5.984375 C 10.003906 6.472656 10.238281 6.988281 10.882812 8.289062 C 11.335938 9.210938 11.914062 10.386719 12.164062 10.914062 C 12.515625 11.710938 12.929688 12.46875 13.402344 13.199219 C 14.1875 14.402344 14.617188 15.011719 15.082031 15.578125 C 15.359375 15.914062 15.8125 16.496094 16.085938 16.863281 C 16.515625 17.441406 16.765625 17.726562 17.96875 18.9375 C 18.730469 19.714844 19.429688 20.4375 19.523438 20.558594 C 19.621094 20.679688 19.675781 20.761719 19.640625 20.761719 Z M 22.007812 31.726562 C 21.878906 32.019531 21.671875 32.246094 21.394531 32.402344 C 20.714844 32.746094 19.894531 32.335938 19.664062 31.523438 C 19.523438 31.023438 19.632812 30.585938 19.992188 30.214844 C 20.632812 29.523438 21.578125 29.691406 21.984375 30.574219 C 22.082031 30.757812 22.125 30.957031 22.109375 31.167969 C 22.125 31.363281 22.089844 31.550781 22.007812 31.726562 Z M 29.9375 29.882812 C 30.164062 29.597656 30.453125 29.464844 30.8125 29.480469 C 31 29.464844 31.175781 29.507812 31.339844 29.601562 C 31.554688 29.703125 31.726562 29.859375 31.855469 30.066406 C 31.980469 30.273438 32.039062 30.496094 32.035156 30.738281 C 32.035156 31.164062 31.941406 31.40625 31.671875 31.679688 C 31.550781 31.816406 31.40625 31.914062 31.234375 31.972656 C 30.820312 32.117188 30.441406 32.050781 30.097656 31.777344 C 29.480469 31.320312 29.410156 30.476562 29.933594 29.882812 Z M 29.9375 29.882812 " fill-opacity="1" fill-rule="nonzero"/></g></svg>